<?xml version="1.0" encoding="UTF-8"?>
<svg version="1.1" xmlns="http://www.w3.org/2000/svg" width="851" height="210">
<path d="M0 0 C8.7739238 6.81150217 16.51765686 16.13111247 18.25 27.375 C18.58795884 33.81193697 18.82083782 39.99909774 16.875 46.1875 C15.43934444 51.98793388 17.85813344 56.92078026 20.10205078 62.22387695 C22.1224816 67.14231677 22.45780522 70.16847243 21.25 75.375 C18.625 75.9375 18.625 75.9375 15.25 75.375 C13.86499023 73.79516602 13.86499023 73.79516602 12.49609375 71.62890625 C11.71733887 70.39950317 11.71733887 70.39950317 10.92285156 69.14526367 C7.85023438 64.05697015 4.88075965 58.91397673 1.9375 53.75 C1.27145707 52.59244881 0.60470293 51.43530657 -0.06274414 50.27856445 C-2.88957806 45.37638611 -5.70606493 40.47124801 -8.4453125 35.51953125 C-13.06778777 26.90688698 -13.06778777 26.90688698 -20.58203125 20.9765625 C-26.3662015 19.37158553 -32.28615904 19.23433005 -37.6875 22.0625 C-40.66506919 24.31086857 -42.66997237 26.29347758 -44.75 29.375 C-45.1625 29.973125 -45.575 30.57125 -46 31.1875 C-48.21192103 37.63893633 -46.77773764 41.86359534 -43.875 47.8125 C-40.39065255 54.4979292 -36.53436498 60.97759189 -32.671875 67.44921875 C-29.21974611 73.24317777 -25.86276841 79.09137703 -22.5 84.9375 C-17.60885485 93.43173948 -12.6960853 101.91263392 -7.75 110.375 C-0.97281769 121.97466641 5.75103126 133.60448496 12.44824219 145.25048828 C14.21010779 148.30582107 15.98266051 151.3547155 17.7578125 154.40234375 C18.83865187 156.26816533 19.91938666 158.1340475 21 160 C21.48936035 160.83426514 21.9787207 161.66853027 22.48291016 162.52807617 C26.87498019 170.14136111 30.50926131 177.37041911 29.25 186.375 C27.49668497 190.52758823 24.9499343 192.8482156 21.25 195.375 C18.11375852 196.40425367 15.19348719 196.51220103 11.90576172 196.53613281 C10.8371994 196.54574036 9.76863708 196.5553479 8.66769409 196.56524658 C7.51665192 196.56949646 6.36560974 196.57374634 5.1796875 196.578125 C3.98828156 196.58382507 2.79687561 196.58952515 1.56936646 196.59539795 C-0.9540722 196.60484509 -3.47752317 196.61138079 -6.00097656 196.61523438 C-9.83941557 196.6249103 -13.67731231 196.65592519 -17.515625 196.6875 C-19.971351 196.69403337 -22.42708082 196.69928253 -24.8828125 196.703125 C-26.59115768 196.7216452 -26.59115768 196.7216452 -28.33401489 196.74053955 C-39.36397312 196.71010025 -48.95283762 194.23556835 -57.75 187.375 C-63.75817154 180.32067006 -68.34393376 172.23235406 -72.875 164.1875 C-73.8562263 162.46592961 -74.83746715 160.74436723 -75.81976318 159.02340698 C-76.48677153 157.8541995 -77.15299096 156.68454161 -77.81842041 155.51443481 C-81.08341553 149.77450543 -84.41294803 144.07322736 -87.75 138.375 C-92.61184551 130.05796267 -97.44141442 121.72293759 -102.25 113.375 C-109.37086408 101.01477482 -116.55183378 88.69032673 -123.75 76.375 C-130.94816699 64.05967196 -138.12896238 51.73512617 -145.25 39.375 C-150.33434938 30.55090607 -155.43534756 21.73680216 -160.5625 12.9375 C-161.15546875 11.91849609 -161.7484375 10.89949219 -162.359375 9.84960938 C-162.90722656 8.91052734 -163.45507812 7.97144531 -164.01953125 7.00390625 C-164.50010986 6.17963135 -164.98068848 5.35535645 -165.47583008 4.50610352 C-166.51699718 2.76470715 -167.62456125 1.06315812 -168.75 -0.625 C-168.75 -1.615 -168.75 -2.605 -168.75 -3.625 C-154.90608436 -4.56357055 -143.25419573 0.94136169 -132.90234375 9.81640625 C-126.76520073 15.61587978 -122.15699467 21.7815115 -118.00683594 29.15039062 C-116.49555562 31.82536853 -114.95522006 34.48274861 -113.4140625 37.140625 C-110.829003 41.60337926 -108.25298236 46.07117427 -105.68359375 50.54296875 C-102.04191226 56.87590025 -98.37189704 63.19184204 -94.6875 69.5 C-94.11362549 70.48282959 -93.53975098 71.46565918 -92.94848633 72.47827148 C-91.21617828 75.44415228 -89.48321375 78.40964841 -87.75 81.375 C-80.55183186 93.69033001 -73.37130817 106.01502834 -66.25 118.375 C-61.2620469 127.02783655 -56.26863571 135.67741482 -51.25 144.3125 C-50.42338867 145.74045898 -50.42338867 145.74045898 -49.58007812 147.19726562 C-48.51924414 149.01932836 -47.44978191 150.83639927 -46.37109375 152.64794922 C-45.23809863 154.55390636 -44.12785789 156.47349181 -43.03515625 158.40283203 C-40.55604026 162.60946119 -38.64443569 165.75917716 -34.58984375 168.55078125 C-29.12499583 169.72380557 -23.88273036 169.69142521 -18.3125 169.5625 C-17.19939453 169.54896484 -16.08628906 169.53542969 -14.93945312 169.52148438 C-12.20912788 169.48632997 -9.47982256 169.43712106 -6.75 169.375 C-14.94363581 154.98398435 -23.16464361 140.6117221 -31.52783203 126.31835938 C-35.79653967 119.01989574 -40.03033529 111.70191685 -44.25 104.375 C-50.30877151 93.85705461 -56.40778719 83.36321187 -62.53125 72.8828125 C-63.05195068 71.98828369 -63.57265137 71.09375488 -64.10913086 70.17211914 C-65.27486018 68.18495044 -66.45420679 66.20574242 -67.64282227 64.23217773 C-68.26729248 63.18747314 -68.8917627 62.14276855 -69.53515625 61.06640625 C-70.10371338 60.12482666 -70.67227051 59.18324707 -71.25805664 58.21313477 C-76.97441639 47.3388618 -76.67809423 36.2509327 -73.79296875 24.65625 C-69.83681116 12.20991153 -62.07299189 2.75504006 -50.75 -3.625 C-34.7217156 -11.14171268 -14.58198631 -9.82742324 0 0 Z " fill="#1D3E50" transform="translate(272.75,7.625)"/>
<path d="M0 0 C12.0161137 -0.81928048 23.33932816 3.72615426 32.6640625 11.109375 C41.76214221 19.08050223 48.17916991 27.45421539 54.0625 38 C55.04931844 39.73968067 56.03615417 41.47935196 57.02427673 43.21829224 C58.03160512 44.99281309 59.03537605 46.76931575 60.0390625 48.54589844 C63.00212547 53.76519811 66.03002273 58.94582208 69.0625 64.125 C70.22017343 66.10669995 71.37772553 68.08847078 72.53515625 70.0703125 C73.10637207 71.04774414 73.67758789 72.02517578 74.26611328 73.03222656 C77.76503227 79.02108311 81.25817064 85.01331349 84.75244141 91.00488281 C87.65471704 95.980906 90.5582908 100.95616135 93.46484375 105.9296875 C99.44588254 116.16669165 105.41424427 126.41110219 111.35305786 136.67266846 C112.36021705 138.41197076 113.36942457 140.15008644 114.37866211 141.88818359 C114.98331299 142.93441895 115.58796387 143.9806543 116.2109375 145.05859375 C116.75024902 145.98986084 117.28956055 146.92112793 117.84521484 147.88061523 C119 150 119 150 119 151 C108.92427859 151.09314362 98.84866151 151.16398833 88.77259541 151.20724869 C84.09262575 151.22802337 79.41295309 151.25615335 74.7331543 151.30175781 C70.20733455 151.34558008 65.68179843 151.36921297 61.1557827 151.37950897 C59.43879934 151.38683566 57.7218295 151.40114077 56.00496864 151.42292023 C42.92936416 151.58202507 30.39056454 150.96324018 19.96533203 142.02294922 C13.27847328 135.14005336 8.69950006 126.28594399 4 118 C3.01540372 116.27895673 2.03080009 114.55791761 1.04576111 112.83712769 C0.03180505 111.06445367 -0.98012616 109.29063633 -1.99169922 107.51660156 C-5.1630632 101.95852517 -8.3636202 96.41726956 -11.5625 90.875 C-12.17375732 89.81458496 -12.78501465 88.75416992 -13.41479492 87.66162109 C-18.4450473 78.94145533 -23.51521569 70.24485178 -28.60961914 61.56201172 C-29.43127563 60.15846436 -29.43127563 60.15846436 -30.26953125 58.7265625 C-30.75010986 57.90752441 -31.23068848 57.08848633 -31.72583008 56.24462891 C-32.89065152 54.19263268 -33.96791373 52.12129125 -35 50 C-25.97337908 47.15281817 -16.67341101 51.59828364 -8.73144531 55.69970703 C5.35523786 63.36142207 13.11095521 75.99808172 20.875 89.625 C21.77400024 91.18009277 21.77400024 91.18009277 22.69116211 92.76660156 C25.46452433 97.56452932 28.21401176 102.37555621 30.94921875 107.1953125 C31.39475098 107.97181152 31.8402832 108.74831055 32.29931641 109.54833984 C33.11387812 110.96807651 33.92019987 112.39258822 34.71630859 113.82275391 C37.22419697 118.18066913 39.85149217 121.96130381 44.80200195 123.59448242 C47.45433316 124.08382177 49.94311223 124.11200472 52.640625 124.09765625 C53.71054688 124.09443359 54.78046875 124.09121094 55.8828125 124.08789062 C56.99398437 124.07951172 58.10515625 124.07113281 59.25 124.0625 C60.37664062 124.05798828 61.50328125 124.05347656 62.6640625 124.04882812 C65.44276217 124.03705397 68.22135409 124.0206084 71 124 C70.47535156 123.10925781 69.95070313 122.21851563 69.41015625 121.30078125 C66.60438095 116.53525875 63.80209102 111.76768949 61 107 C60.37287109 105.93330078 59.74574219 104.86660156 59.09960938 103.76757812 C50.829366 89.69617852 42.59659594 75.60519815 34.4543457 61.45922852 C30.3274103 54.29168137 26.17304928 47.14078607 22 40 C20.28040728 37.05336121 18.56140984 34.10637635 16.84277344 31.15917969 C15.53954683 28.92497828 14.23548411 26.69127787 12.93066406 24.45800781 C11.16556737 21.43585819 9.40528832 18.41094389 7.64794922 15.38427734 C6.64197323 13.65419072 5.63157031 11.92668063 4.62109375 10.19921875 C4.01652344 9.15636719 3.41195312 8.11351562 2.7890625 7.0390625 C2.24975098 6.11303223 1.71043945 5.18700195 1.15478516 4.23291016 C0 2 0 2 0 0 Z " fill="#1D3E50" transform="translate(69,53)"/>
<path d="M0 0 C5.28 0 10.56 0 16 0 C20.62 16.5 25.24 33 30 50 C32.39160088 43.70256636 32.39160088 43.70256636 34.42626953 37.34399414 C34.78146164 36.11846581 34.78146164 36.11846581 35.14382935 34.86817932 C35.38769379 34.01578171 35.63155823 33.16338409 35.8828125 32.28515625 C36.27241653 30.94063637 36.27241653 30.94063637 36.66989136 29.56895447 C37.77209745 25.76501346 38.86697336 21.95897331 39.96240234 18.15307617 C40.7665894 15.36300568 41.57458216 12.57405763 42.3828125 9.78515625 C42.6307254 8.91858902 42.87863831 8.05202179 43.13406372 7.15919495 C44.8871536 1.1128464 44.8871536 1.1128464 46 0 C51.61 0 57.22 0 63 0 C67.95 16.83 72.9 33.66 78 51 C82.56454031 34.9647263 82.56454031 34.9647263 87.12475586 18.92822266 C87.69629456 16.92345776 88.26798036 14.9187348 88.83984375 12.9140625 C89.13701294 11.86629639 89.43418213 10.81853027 89.74035645 9.73901367 C90.02447388 8.74442139 90.30859131 7.7498291 90.60131836 6.72509766 C90.97105019 5.42603989 90.97105019 5.42603989 91.34825134 4.10073853 C92 2 92 2 93 0 C98.28 0 103.56 0 109 0 C103.76087672 18.23732838 98.51350257 36.47194765 93.03118896 54.63796997 C92.59380212 56.08741653 92.15748154 57.53718527 91.722229 58.98727417 C91.11773133 60.99908444 90.50888262 63.00951882 89.8984375 65.01953125 C89.55474121 66.15495361 89.21104492 67.29037598 88.85693359 68.46020508 C88 71 88 71 87 72 C85.65732587 72.08631874 84.31025678 72.10706473 82.96484375 72.09765625 C82.15595703 72.09443359 81.34707031 72.09121094 80.51367188 72.08789062 C79.66353516 72.07951172 78.81339844 72.07113281 77.9375 72.0625 C77.08349609 72.05798828 76.22949219 72.05347656 75.34960938 72.04882812 C73.23304337 72.03700373 71.11651315 72.01906769 69 72 C66.79737332 66.28631212 64.86412373 60.54475587 63.08203125 54.6875 C62.84915405 53.92888672 62.61627686 53.17027344 62.37634277 52.38867188 C61.51900921 49.59328047 60.66599852 46.79656472 59.8125 44 C57.894375 37.73 55.97625 31.46 54 25 C49.38 40.51 44.76 56.02 40 72 C33.73 72 27.46 72 21 72 C16.440424 58.57694915 12.21155816 45.07778417 8.13867188 31.49951172 C7.11144443 28.07987355 6.07537011 24.66298969 5.0390625 21.24609375 C4.38227613 19.06266127 3.72600637 16.87907331 3.0703125 14.6953125 C2.76102814 13.67873566 2.45174377 12.66215881 2.13308716 11.61477661 C1.85214203 10.67213959 1.5711969 9.72950256 1.28173828 8.75830078 C1.03336212 7.93323029 0.78498596 7.10815979 0.52908325 6.25808716 C0 4 0 4 0 0 Z " fill="#1D3E50" transform="translate(407,40)"/>
<path d="M0 0 C15 0 15 0 20.0625 4.8125 C21.39086914 6.52294922 21.39086914 6.52294922 22.41015625 8.1171875 C24.87573234 11.84733713 27.51391834 15.42261598 30.18920898 19.00463867 C31.91462947 21.32280169 33.61547585 23.65710076 35.3125 25.99609375 C39.78477418 32.06493191 44.40357206 38.02464368 49 44 C49.33 29.48 49.66 14.96 50 0 C54.95 0 59.9 0 65 0 C65 23.76 65 47.52 65 72 C51 72 51 72 46 67.1875 C44.6640625 65.47705078 44.6640625 65.47705078 43.625 63.8828125 C41.13039784 60.16624506 38.48522586 56.58255202 35.80859375 52.99536133 C34.08481481 50.67659012 32.38440057 48.34238496 30.6875 46.00390625 C26.21522582 39.93506809 21.59642794 33.97535632 17 28 C16.67 42.52 16.34 57.04 16 72 C10.72 72 5.44 72 0 72 C0 48.24 0 24.48 0 0 Z " fill="#1E3E50" transform="translate(667,132)"/>
<path d="M0 0 C15 0 15 0 18.74609375 2.98046875 C19.69332546 4.34947278 20.58887172 5.75528145 21.4375 7.1875 C22.48595193 8.74245853 23.53685494 10.29576642 24.58984375 11.84765625 C25.13108887 12.6792627 25.67233398 13.51086914 26.22998047 14.36767578 C29.42687065 19.12200267 32.99088294 23.59921163 36.5 28.125 C37.82548777 29.85480372 39.14852589 31.5864881 40.46875 33.3203125 C41.03013672 34.05523926 41.59152344 34.79016602 42.16992188 35.54736328 C44.49467372 38.66295254 46.74053286 41.83674601 49 45 C49.33 30.15 49.66 15.3 50 0 C54.95 0 59.9 0 65 0 C65 23.76 65 47.52 65 72 C50 72 50 72 45.7890625 68.484375 C44.68433211 66.94086763 43.63041058 65.35996702 42.625 63.75 C42.05031982 62.92459717 41.47563965 62.09919434 40.88354492 61.2487793 C39.73949393 59.60232883 38.6143701 57.94253609 37.51025391 56.26904297 C35.56410568 53.34510156 33.45926158 50.59223213 31.3125 47.8125 C26.18055157 40.89552603 21.09333472 33.94545643 16 27 C15.67 41.85 15.34 56.7 15 72 C10.05 72 5.1 72 0 72 C0 48.24 0 24.48 0 0 Z " fill="#1D3E50" transform="translate(598,40)"/>
<path d="M0 0 C4.95 0 9.9 0 15 0 C15 9.24 15 18.48 15 28 C23.91 28 32.82 28 42 28 C42 18.76 42 9.52 42 0 C46.95 0 51.9 0 57 0 C57 23.76 57 47.52 57 72 C52.05 72 47.1 72 42 72 C42 62.43 42 52.86 42 43 C33.09 43 24.18 43 15 43 C15 52.57 15 62.14 15 72 C10.05 72 5.1 72 0 72 C0 48.24 0 24.48 0 0 Z " fill="#1D3E50" transform="translate(350,132)"/>
<path d="M0 0 C0.79075928 0.00523682 1.58151855 0.01047363 2.39624023 0.01586914 C3.67724609 0.02070312 3.67724609 0.02070312 4.98413086 0.02563477 C5.88196289 0.03401367 6.77979492 0.04239258 7.70483398 0.05102539 C8.6065332 0.05553711 9.50823242 0.06004883 10.43725586 0.06469727 C12.67234712 0.07652315 14.90730835 0.09300319 17.14233398 0.11352539 C19.95972841 8.17200243 22.7764176 16.23072548 25.59222889 24.28975582 C26.90001232 28.03264524 28.20803038 31.77545231 29.51660156 35.51806641 C30.78153462 39.13590071 32.04582926 42.75395756 33.3096981 46.37216377 C33.78984961 47.74639242 34.27022368 49.12054332 34.75083351 50.49461174 C37.26547135 57.68445844 39.75844337 64.87905562 42.14233398 72.11352539 C36.86233398 72.11352539 31.58233398 72.11352539 26.14233398 72.11352539 C22.14233398 62.48852539 22.14233398 62.48852539 22.14233398 59.11352539 C12.57233398 59.11352539 3.00233398 59.11352539 -6.85766602 59.11352539 C-7.51766602 62.08352539 -8.17766602 65.05352539 -8.85766602 68.11352539 C-9.51766602 69.43352539 -10.17766602 70.75352539 -10.85766602 72.11352539 C-16.13766602 72.11352539 -21.41766602 72.11352539 -26.85766602 72.11352539 C-26.13601268 68.50525869 -25.36361474 65.4263513 -24.17114258 61.99462891 C-23.82698303 60.99911514 -23.48282349 60.00360138 -23.12823486 58.97792053 C-22.56891266 57.37635353 -22.56891266 57.37635353 -21.99829102 55.74243164 C-21.61203552 54.62851547 -21.22578003 53.5145993 -20.82781982 52.3669281 C-19.59081806 48.80222632 -18.34922992 45.23914042 -17.10766602 41.67602539 C-16.28706823 39.31219211 -15.46675273 36.94826082 -14.64672852 34.58422852 C-12.39259567 28.09087568 -10.1278102 21.60129575 -7.85766602 15.11352539 C-7.56915771 14.28713562 -7.28064941 13.46074585 -6.98339844 12.60931396 C-6.2728954 10.57698984 -5.55858443 8.54606984 -4.84204102 6.51586914 C-4.47304688 5.46778076 -4.10405273 4.41969238 -3.72387695 3.33984375 C-2.48346812 0.15176931 -2.48346812 0.15176931 0 0 Z M7.14233398 19.11352539 C5.80142605 22.88170849 4.47091609 26.6534806 3.14233398 30.42602539 C2.76077148 31.49788086 2.37920898 32.56973633 1.98608398 33.67407227 C1.62514648 34.70209961 1.26420898 35.73012695 0.89233398 36.78930664 C0.38959961 38.21110229 0.38959961 38.21110229 -0.12329102 39.66162109 C-1.00112555 42.16591618 -1.00112555 42.16591618 -0.85766602 45.11352539 C4.75233398 45.11352539 10.36233398 45.11352539 16.14233398 45.11352539 C14.50464962 36.10626138 11.27253702 27.68713181 8.14233398 19.11352539 C7.81233398 19.11352539 7.48233398 19.11352539 7.14233398 19.11352539 Z " fill="#1D3E50" transform="translate(543.857666015625,39.886474609375)"/>
<path d="M0 0 C2.95791192 2.07242236 5.71958303 4.18378306 8 7 C8 10 8 10 6.390625 11.82421875 C5.33101563 12.74654297 5.33101563 12.74654297 4.25 13.6875 C3.55390625 14.31011719 2.8578125 14.93273437 2.140625 15.57421875 C0 17 0 17 -4 17 C-5.82421875 15.94140625 -5.82421875 15.94140625 -7.6875 14.5625 C-12.01563401 11.72543636 -15.83445931 10.79071474 -21 11 C-24.42825684 11.8049517 -24.42825684 11.8049517 -27 13 C-27.33 14.98 -27.66 16.96 -28 19 C-21.29918047 22.62832394 -14.53905726 25.32376974 -7.296875 27.69140625 C-1.60348814 29.95122212 3.06868032 33.30425705 7 38 C9.71788751 44.9888536 9.8328386 51.25739351 6.97265625 58.1484375 C4.11520891 63.58791558 -0.72448074 66.3142811 -6 69 C-15.14577764 71.78444218 -28.33263654 71.53116815 -36.91015625 67.35546875 C-40.62333765 64.94710624 -43.86680413 62.11569199 -47 59 C-46.49452628 54.91944849 -44.49911118 53.33727705 -41.4375 50.75 C-40.61121094 50.04359375 -39.78492188 49.3371875 -38.93359375 48.609375 C-38.29550781 48.07828125 -37.65742188 47.5471875 -37 47 C-36.49210937 47.40992188 -35.98421875 47.81984375 -35.4609375 48.2421875 C-28.91469777 53.36639763 -23.39426682 55.86607515 -15 55 C-11.63178728 54.10202887 -11.63178728 54.10202887 -9 53 C-8.0636079 49.70054409 -8.0636079 49.70054409 -8 46 C-11.97104077 41.79345784 -16.91530391 40.40911334 -22.25 38.625 C-30.14757805 35.84405709 -37.39028396 33.17373418 -43 26.6875 C-45.44529041 20.11578203 -45.48816719 14.55137784 -42.9375 8.00390625 C-40.1025909 1.94428805 -36.02279707 -0.60029179 -30 -3 C-20.51734171 -6.09261642 -8.63452982 -4.72974245 0 0 Z " fill="#1D3E50" transform="translate(391,43)"/>
<path d="M0 0 C14.52 0 29.04 0 44 0 C44 4.62 44 9.24 44 14 C34.43 14 24.86 14 15 14 C15 18.62 15 23.24 15 28 C23.91 28 32.82 28 42 28 C42 32.95 42 37.9 42 43 C33.09 43 24.18 43 15 43 C15 47.62 15 52.24 15 57 C24.9 57 34.8 57 45 57 C45 61.95 45 66.9 45 72 C30.15 72 15.3 72 0 72 C0 48.24 0 24.48 0 0 Z " fill="#1E3E50" transform="translate(606,132)"/>
<path d="M0 0 C14.52 0 29.04 0 44 0 C44 4.62 44 9.24 44 14 C34.43 14 24.86 14 15 14 C15 18.62 15 23.24 15 28 C23.91 28 32.82 28 42 28 C42 32.95 42 37.9 42 43 C33.09 43 24.18 43 15 43 C15 47.62 15 52.24 15 57 C24.9 57 34.8 57 45 57 C45 61.95 45 66.9 45 72 C30.15 72 15.3 72 0 72 C0 48.24 0 24.48 0 0 Z " fill="#1E3E50" transform="translate(427,132)"/>
<path d="M0 0 C4.09317366 3.03026888 7.78756459 6.12390943 10.609375 10.41796875 C10.609375 11.07796875 10.609375 11.73796875 10.609375 12.41796875 C8.34375 14.21484375 8.34375 14.21484375 5.359375 16.16796875 C4.38484375 16.8228125 3.4103125 17.47765625 2.40625 18.15234375 C-0.390625 19.41796875 -0.390625 19.41796875 -2.56640625 18.77734375 C-4.20467635 17.55653434 -5.77221513 16.24214737 -7.328125 14.91796875 C-12.19995526 10.94096446 -15.939061 10.00393471 -22.12109375 10.16796875 C-28.00958715 10.81661518 -33.61932451 13.84241397 -37.390625 18.41796875 C-41.37713851 25.68749339 -42.50402581 32.01626306 -40.203125 40.04296875 C-38.72162631 44.15203116 -36.78832529 46.60036363 -33.390625 49.41796875 C-32.78476562 49.9284375 -32.17890625 50.43890625 -31.5546875 50.96484375 C-27.02736734 54.00484935 -21.19970817 54.8278964 -15.84765625 54.046875 C-10.793433 52.5483867 -7.98559106 50.32107475 -4.390625 46.41796875 C-2.61328125 45.5546875 -2.61328125 45.5546875 -0.390625 45.41796875 C2.40625 46.8515625 2.40625 46.8515625 5.359375 48.85546875 C6.34421875 49.51417969 7.3290625 50.17289063 8.34375 50.8515625 C9.09140625 51.36847656 9.8390625 51.88539063 10.609375 52.41796875 C7.41525167 59.25425986 1.25975874 64.32612947 -5.5703125 67.3984375 C-16.76172965 71.30626021 -28.74287745 70.5228463 -39.390625 65.41796875 C-47.90457763 60.35420031 -54.10465576 52.68732866 -56.921875 43.12890625 C-58.86414292 31.89612346 -58.38556736 19.7898209 -51.703125 10.23046875 C-39.52081483 -4.54953991 -17.07936701 -11.30252228 0 0 Z " fill="#1D3E50" transform="translate(840.390625,135.58203125)"/>
<path d="M0 0 C5.61 0 11.22 0 17 0 C17 18.81 17 37.62 17 57 C26.57 57 36.14 57 46 57 C46 61.95 46 66.9 46 72 C30.82 72 15.64 72 0 72 C0 48.24 0 24.48 0 0 Z " fill="#1E3E50" transform="translate(488,132)"/>
<path d="M0 0 C5.61 0 11.22 0 17 0 C17 18.81 17 37.62 17 57 C26.24 57 35.48 57 45 57 C45 61.95 45 66.9 45 72 C30.15 72 15.3 72 0 72 C0 48.24 0 24.48 0 0 Z " fill="#1E3E50" transform="translate(547,132)"/>
<path d="M0 0 C14.32963362 -1.14129825 26.31943642 5.02442186 37.0625 14.0625 C45.27890201 21.76617801 50.82410792 31.53927687 56.5625 41.125 C57.00464844 41.85976562 57.44679687 42.59453125 57.90234375 43.3515625 C58.30710938 44.0425 58.711875 44.7334375 59.12890625 45.4453125 C59.67140015 46.36594482 59.67140015 46.36594482 60.22485352 47.30517578 C61 49 61 49 61 52 C56.69530892 52.22352603 52.39373467 52.38623281 48.08496094 52.49438477 C46.62179723 52.53948228 45.15903561 52.60078644 43.69726562 52.67895508 C31.71613025 53.30331261 31.71613025 53.30331261 27.94580078 50.43994141 C26.31181343 48.04883462 25.18108263 45.64459806 24 43 C22.74732151 40.80874494 21.47784378 38.62704212 20.1953125 36.453125 C18.82938084 34.05724732 17.47794449 31.65323123 16.125 29.25 C14.77640391 26.85768524 13.42498942 24.46700182 12.0703125 22.078125 C11.73992981 21.49446167 11.40954712 20.91079834 11.06915283 20.30944824 C8.01822125 14.95638446 4.76478941 9.74026281 1.46435547 4.53808594 C-0 2 -0 2 0 0 Z " fill="#1D3E50" transform="translate(0,152)"/>
<path d="M0 0 C4.95 0 9.9 0 15 0 C15 23.76 15 47.52 15 72 C10.05 72 5.1 72 0 72 C0 48.24 0 24.48 0 0 Z " fill="#1E3E51" transform="translate(752,132)"/>
</svg>
